<svg width="164" height="52" viewBox="0 0 164 52" fill="none" xmlns="http://www.w3.org/2000/svg">
<path d="M64.843 9.51632H62.3196V7.54371C62.3199 6.97122 62.1904 6.40428 61.9385 5.87526C61.6866 5.34625 61.3172 4.86552 60.8514 4.46051C60.3856 4.05551 59.8326 3.73417 59.2238 3.51484C58.6151 3.29551 57.9625 3.18248 57.3035 3.18221H55.0068C53.863 3.17977 52.7533 3.52017 51.8649 4.14597C46.7165 1.1863 40.6078 -0.254498 34.4432 0.0368912C28.2787 0.328281 22.386 2.33637 17.6377 5.76384H13.2566C12.7523 5.76384 12.253 5.85015 11.7872 6.01783C11.3214 6.18552 10.8982 6.4313 10.5417 6.74112C10.1853 7.05094 9.90263 7.41874 9.70988 7.8235C9.51714 8.22826 9.41809 8.66204 9.4184 9.10006V9.51017H7.15704C5.25844 9.51126 3.43803 10.1672 2.09596 11.3338C0.753893 12.5004 -2.29511e-08 14.0822 3.89557e-07 15.7315V37.5677C-0.000309778 38.3842 0.184601 39.1928 0.544166 39.9472C0.903731 40.7016 1.4309 41.3871 2.09556 41.9645C2.76021 42.5419 3.54932 42.9998 4.41779 43.3122C5.28626 43.6245 6.21708 43.7852 7.15704 43.7849H17.0216C22.2684 47.7907 29.0147 50 36 50C42.9853 50 49.7316 47.7907 54.9784 43.7849H64.843C66.7411 43.7849 68.5615 43.1299 69.9038 41.9639C71.246 40.7979 72 39.2166 72 37.5677V15.7315C71.9981 14.0833 71.2434 12.5031 69.9015 11.3378C68.5597 10.1725 66.7403 9.51741 64.843 9.51632ZM36 48.335C30.2691 48.3391 24.6881 46.7448 20.0784 43.7869L19.9557 43.707C14.7678 40.3594 11.1465 35.4966 9.75856 30.0137C8.37061 24.5308 9.30939 18.7969 12.4021 13.8676C13.0488 12.8337 13.7859 11.8445 14.6068 10.9086C15.0269 10.4288 15.4684 9.96265 15.931 9.51017C17.1501 8.31667 18.5057 7.23389 19.9769 6.27852C24.3706 3.4323 29.6626 1.82374 35.1406 1.66939C40.6186 1.51505 46.0195 2.82233 50.6162 5.41525C52.6388 6.5652 54.4757 7.94439 56.0784 9.51632C59.5118 12.8792 61.7541 17.0319 62.5356 21.4753C63.3172 25.9187 62.6048 30.4636 60.4841 34.5637C58.3634 38.6638 54.9246 42.1446 50.5811 44.5876C46.2377 47.0306 41.1744 48.3319 36 48.335Z" fill="white"/>
<path d="M86.5391 9.00391C86.5391 8.34635 86.4284 7.86458 86.207 7.55859C85.9857 7.2526 85.6178 7.07357 85.1035 7.02148C84.8887 7.00195 84.7812 6.93359 84.7812 6.81641C84.7812 6.6862 84.8659 6.62109 85.0352 6.62109L85.8066 6.66016C85.8848 6.66667 86.1126 6.66992 86.4902 6.66992C87.1478 6.66992 87.6589 6.65365 88.0234 6.62109L88.9316 6.5332C89.3223 6.50065 89.752 6.48438 90.2207 6.48438C92.89 6.48438 94.8919 7.15495 96.2266 8.49609C97.444 9.72005 98.0527 11.2858 98.0527 13.1934C98.0527 14.4238 97.7858 15.5534 97.252 16.582C96.7181 17.6107 95.9759 18.4212 95.0254 19.0137C93.8275 19.7624 92.5189 20.1367 91.0996 20.1367C90.9303 20.1367 90.6309 20.1204 90.2012 20.0879C89.3288 20.0293 88.5703 20 87.9258 20C87.2292 20 86.6237 20.0358 86.1094 20.1074C85.875 20.14 85.6895 20.1595 85.5527 20.166C85.3249 20.179 85.2109 20.1042 85.2109 19.9414C85.2109 19.8307 85.3021 19.7559 85.4844 19.7168C85.9271 19.6257 86.2135 19.4629 86.3438 19.2285C86.474 18.9941 86.5391 18.5156 86.5391 17.793V9.00391ZM88.0332 8.21289V18.2812C88.0332 18.6784 88.2318 18.9518 88.6289 19.1016C88.974 19.2318 89.4134 19.3457 89.9473 19.4434C90.4876 19.541 90.9434 19.5898 91.3145 19.5898C92.4277 19.5898 93.4303 19.3099 94.3223 18.75C95.8327 17.8125 96.5879 16.2174 96.5879 13.9648C96.5879 12.7409 96.3503 11.6146 95.875 10.5859C95.4062 9.55729 94.7585 8.75 93.9316 8.16406C92.9225 7.44141 91.6953 7.08008 90.25 7.08008C89.2214 7.08008 88.5671 7.19076 88.2871 7.41211C88.1178 7.54232 88.0332 7.80924 88.0332 8.21289ZM102.877 9.52148V16.8262C102.877 17.7376 102.932 18.3398 103.043 18.6328C103.173 18.9648 103.333 19.1992 103.521 19.3359C103.717 19.4727 104.02 19.5703 104.43 19.6289C104.755 19.6745 104.918 19.7559 104.918 19.873C104.918 20.0293 104.817 20.1074 104.615 20.1074C104.518 20.1074 104.394 20.0977 104.244 20.0781C104.042 20.0521 103.697 20.0391 103.209 20.0391L101.793 20.0195L100.641 20.0879C100.452 20.1074 100.296 20.1172 100.172 20.1172C99.9961 20.1172 99.9082 20.0488 99.9082 19.9121C99.9082 19.7949 100.009 19.7201 100.211 19.6875C100.706 19.6029 101.025 19.4336 101.168 19.1797C101.311 18.9193 101.383 18.3757 101.383 17.5488V9.18945C101.383 8.38216 101.288 7.83854 101.1 7.55859C100.917 7.27865 100.523 7.08984 99.918 6.99219C99.7161 6.95312 99.612 6.875 99.6055 6.75781C99.599 6.61458 99.6934 6.54297 99.8887 6.54297C99.9408 6.54297 99.9993 6.54622 100.064 6.55273C100.54 6.60482 101.171 6.63086 101.959 6.63086C102.441 6.63086 102.854 6.62109 103.199 6.60156L103.854 6.55273C103.977 6.54622 104.059 6.54297 104.098 6.54297C104.273 6.54297 104.361 6.60482 104.361 6.72852C104.361 6.8457 104.277 6.93359 104.107 6.99219L103.6 7.1875C103.118 7.36979 102.877 8.14779 102.877 9.52148ZM118.072 10.4102V18.5938C118.072 19.3294 118.056 19.7786 118.023 19.9414C117.991 20.0977 117.9 20.1725 117.75 20.166C117.652 20.1595 117.577 20.1302 117.525 20.0781L117.311 19.8242L109.078 10.4102L108.98 10.3027C108.941 10.2637 108.896 10.2441 108.844 10.2441C108.72 10.2441 108.658 10.3906 108.658 10.6836V17.3047L108.648 17.7148L108.678 18.4082C108.723 18.8379 108.834 19.1341 109.01 19.2969C109.186 19.4596 109.531 19.5801 110.045 19.6582C110.26 19.6842 110.367 19.7689 110.367 19.9121C110.367 20.0423 110.299 20.1074 110.162 20.1074C110.071 20.1074 109.973 20.1009 109.869 20.0879C109.798 20.0749 109.514 20.0553 109.02 20.0293L108.023 19.9805L107.555 20C107.301 20 107.06 20.0163 106.832 20.0488C106.663 20.0749 106.542 20.0879 106.471 20.0879C106.301 20.0879 106.21 20.026 106.197 19.9023C106.191 19.8047 106.282 19.7233 106.471 19.6582C107.018 19.4694 107.385 19.2188 107.574 18.9062C107.77 18.5872 107.867 18.0762 107.867 17.373V10.7324C107.867 9.60612 107.688 8.7207 107.33 8.07617C106.972 7.42513 106.454 7.05404 105.777 6.96289C105.602 6.93685 105.514 6.86198 105.514 6.73828C105.514 6.61458 105.585 6.55273 105.729 6.55273C105.761 6.55273 105.813 6.55599 105.885 6.5625L106.285 6.57227L106.939 6.5918L107.096 6.58203C107.252 6.57552 107.372 6.57227 107.457 6.57227C107.62 6.57227 107.783 6.66667 107.945 6.85547L116.93 17.0312C117.073 17.194 117.164 17.2721 117.203 17.2656C117.268 17.2591 117.304 17.1973 117.311 17.0801V12.2461L117.32 10.9277L117.203 8.68164C117.138 8.12826 116.975 7.73763 116.715 7.50977C116.461 7.27539 115.999 7.10286 115.328 6.99219C115.139 6.95964 115.045 6.87826 115.045 6.74805C115.045 6.62435 115.139 6.5625 115.328 6.5625C115.413 6.5625 115.549 6.57227 115.738 6.5918C116.188 6.64388 116.79 6.66992 117.545 6.66992C117.949 6.66992 118.271 6.65039 118.512 6.61133C118.72 6.57227 118.88 6.55273 118.99 6.55273C119.16 6.55273 119.251 6.62109 119.264 6.75781C119.27 6.84245 119.205 6.9043 119.068 6.94336C118.671 7.04102 118.408 7.20378 118.277 7.43164C118.154 7.65951 118.092 8.08594 118.092 8.71094V9.76562L118.072 10.4102ZM124.234 8.20312V12.1289C124.234 12.4284 124.26 12.6107 124.312 12.6758C124.371 12.7344 124.54 12.7637 124.82 12.7637H126.324C127.008 12.7637 127.548 12.7246 127.945 12.6465C128.297 12.5749 128.525 12.4805 128.629 12.3633C128.733 12.2461 128.827 11.9727 128.912 11.543C128.945 11.3802 129.026 11.3021 129.156 11.3086C129.28 11.3151 129.342 11.403 129.342 11.5723C129.342 11.6178 129.339 11.6895 129.332 11.7871C129.28 12.4186 129.254 12.9948 129.254 13.5156C129.254 13.9128 129.273 14.3066 129.312 14.6973C129.326 14.8275 129.332 14.9219 129.332 14.9805C129.332 15.1432 129.27 15.2246 129.146 15.2246C129.01 15.2246 128.928 15.153 128.902 15.0098L128.844 14.7363C128.766 14.3001 128.609 14.0039 128.375 13.8477C128.141 13.6914 127.743 13.6133 127.184 13.6133H125.025C124.706 13.6133 124.492 13.6458 124.381 13.7109C124.277 13.776 124.225 13.9062 124.225 14.1016L124.234 14.4238V18.0176C124.234 18.571 124.332 18.916 124.527 19.0527C124.729 19.1895 125.234 19.2578 126.041 19.2578C128.6 19.2578 130.243 18.6816 130.973 17.5293C131.044 17.4186 131.116 17.36 131.188 17.3535C131.305 17.347 131.363 17.4316 131.363 17.6074C131.363 18.0306 131.126 18.5352 130.65 19.1211C130.077 19.8242 129.355 20.1758 128.482 20.1758C128.294 20.1758 128.04 20.1628 127.721 20.1367C126.477 20.0195 125.449 19.9609 124.635 19.9609C123.495 19.9609 122.691 20 122.223 20.0781C121.975 20.1237 121.806 20.1465 121.715 20.1465C121.507 20.1465 121.402 20.0749 121.402 19.9316C121.402 19.821 121.487 19.7428 121.656 19.6973L122.027 19.5898C122.496 19.4596 122.73 19.0039 122.73 18.2227L122.74 17.5879V9.33594C122.74 8.40495 122.636 7.77995 122.428 7.46094C122.226 7.13542 121.829 6.97266 121.236 6.97266C121.048 6.97266 120.953 6.91081 120.953 6.78711C120.953 6.60482 121.1 6.51367 121.393 6.51367C121.555 6.51367 121.773 6.52995 122.047 6.5625C122.978 6.66667 124.098 6.71875 125.406 6.71875C126.201 6.71875 126.904 6.70573 127.516 6.67969L128.902 6.61133C129.286 6.59831 129.521 6.58529 129.605 6.57227C129.781 6.54622 129.911 6.5332 129.996 6.5332C130.211 6.5332 130.318 6.6276 130.318 6.81641C130.318 6.875 130.309 6.94987 130.289 7.04102C130.27 7.13216 130.243 7.39258 130.211 7.82227L130.172 8.39844C130.139 8.77604 130.107 9.01367 130.074 9.11133C130.042 9.20247 129.97 9.2513 129.859 9.25781C129.736 9.26432 129.674 9.16667 129.674 8.96484V8.71094C129.674 8.5026 129.635 8.30404 129.557 8.11523C129.433 7.82227 129.182 7.62695 128.805 7.5293C128.427 7.43164 127.734 7.38281 126.725 7.38281H125.191C124.788 7.38281 124.527 7.4349 124.41 7.53906C124.293 7.63672 124.234 7.85807 124.234 8.20312ZM139.498 13.3008L142.193 17.2852L142.506 17.7539C143.339 18.9779 144.107 19.6126 144.811 19.6582L145.123 19.6777C145.24 19.6842 145.296 19.7298 145.289 19.8145C145.283 19.9121 145.136 20 144.85 20.0781C144.57 20.1562 144.251 20.1953 143.893 20.1953C143.307 20.1953 142.779 20.0358 142.311 19.7168C141.848 19.3913 141.376 18.8639 140.895 18.1348L138.463 14.4238L138.326 14.209C138.17 13.9421 137.916 13.8086 137.564 13.8086H136.266L136.051 13.8477C135.973 13.8932 135.934 13.9974 135.934 14.1602V17.207L135.943 17.5977C135.943 18.1576 135.969 18.5417 136.021 18.75C136.08 18.9518 136.214 19.1341 136.422 19.2969C136.702 19.5182 137.135 19.6582 137.721 19.7168C137.955 19.7428 138.076 19.8177 138.082 19.9414C138.095 20.0716 137.988 20.1367 137.76 20.1367C137.669 20.1367 137.477 20.1237 137.184 20.0977C136.917 20.0716 136.503 20.0586 135.943 20.0586L135.006 20.0488L134.498 20.0586C134.277 20.0586 134.01 20.0749 133.697 20.1074C133.443 20.1335 133.268 20.1465 133.17 20.1465C133.007 20.1465 132.926 20.0781 132.926 19.9414C132.926 19.8438 133.007 19.7786 133.17 19.7461C133.691 19.6484 134.033 19.4141 134.195 19.043C134.358 18.6654 134.439 17.9264 134.439 16.8262V9.81445L134.42 8.79883C134.42 7.7832 134.065 7.2168 133.355 7.09961L132.896 7.03125C132.688 6.99219 132.584 6.91406 132.584 6.79688C132.584 6.66016 132.695 6.5918 132.916 6.5918C132.968 6.5918 133.196 6.60482 133.6 6.63086C133.834 6.65039 134.124 6.66016 134.469 6.66016C134.768 6.66016 135.279 6.63737 136.002 6.5918C136.523 6.55924 136.982 6.54297 137.379 6.54297C138.876 6.54297 140.006 6.82617 140.768 7.39258C141.529 7.95247 141.91 8.78906 141.91 9.90234C141.91 11.3672 141.106 12.5 139.498 13.3008ZM136.627 13.0859H137.73C138.583 13.0859 139.254 12.8516 139.742 12.3828C140.23 11.9141 140.475 11.2728 140.475 10.459C140.475 9.51497 140.143 8.74023 139.479 8.13477C138.814 7.52279 137.968 7.2168 136.939 7.2168C136.555 7.2168 136.288 7.2819 136.139 7.41211C135.995 7.53581 135.924 7.76367 135.924 8.0957L135.934 8.41797V12.3828C135.934 12.6888 135.973 12.8841 136.051 12.9688C136.135 13.0469 136.327 13.0859 136.627 13.0859ZM152.018 6.40625C154.055 6.40625 155.725 7.03776 157.027 8.30078C158.336 9.55729 158.99 11.1686 158.99 13.1348C158.99 15.2181 158.333 16.9271 157.018 18.2617C155.702 19.5964 154.02 20.2637 151.969 20.2637C149.866 20.2637 148.163 19.6257 146.861 18.3496C145.566 17.0736 144.918 15.4004 144.918 13.3301C144.918 12.4316 145.087 11.543 145.426 10.6641C145.771 9.77865 146.233 9.03971 146.812 8.44727C147.424 7.82227 148.199 7.32747 149.137 6.96289C150.074 6.5918 151.035 6.40625 152.018 6.40625ZM151.383 7.04102C149.872 7.04102 148.671 7.55208 147.779 8.57422C146.894 9.58984 146.451 10.9603 146.451 12.6855C146.451 14.6582 147.018 16.3216 148.15 17.6758C149.29 19.0299 150.686 19.707 152.34 19.707C153.85 19.707 155.097 19.1569 156.08 18.0566C157.063 16.9499 157.555 15.5501 157.555 13.8574C157.555 11.9108 156.965 10.2897 155.787 8.99414C154.609 7.69206 153.141 7.04102 151.383 7.04102Z" fill="white"/>
<path d="M86.0039 32.5215C86.0039 32.3327 85.9876 32.196 85.9551 32.1113C85.929 32.0267 85.916 31.9486 85.916 31.877C85.916 31.7793 85.9681 31.6979 86.0723 31.6328C86.1764 31.5677 86.3001 31.5352 86.4434 31.5352C86.7754 31.5352 87.0423 31.623 87.2441 31.7988C87.4525 31.9681 87.5566 32.1764 87.5566 32.4238V38.957C87.7845 38.931 88.0417 38.8659 88.3281 38.7617C88.6211 38.6576 88.9206 38.5143 89.2266 38.332C89.5326 38.1432 89.8288 37.9121 90.1152 37.6387C90.4082 37.3652 90.6686 37.0462 90.8965 36.6816C91.1243 36.3171 91.3066 35.9069 91.4434 35.4512C91.5866 34.9889 91.6582 34.4779 91.6582 33.918C91.6582 33.5404 91.5964 33.1497 91.4727 32.7461C91.3555 32.3424 91.1667 31.9746 90.9062 31.6426C90.6458 31.3105 90.3073 31.0371 89.8906 30.8223C89.4805 30.6074 88.9824 30.5 88.3965 30.5C87.5957 30.5 86.9089 30.6237 86.3359 30.8711C85.763 31.1185 85.2943 31.4505 84.9297 31.8672C84.5716 32.2839 84.3079 32.7689 84.1387 33.3223C83.9694 33.8691 83.8848 34.4486 83.8848 35.0605C83.8848 35.5033 83.9206 35.8776 83.9922 36.1836C84.0703 36.4831 84.1549 36.7305 84.2461 36.9258C84.3372 37.1146 84.4219 37.2546 84.5 37.3457C84.5781 37.4368 84.6237 37.4889 84.6367 37.502C84.7474 37.4694 84.8255 37.4824 84.8711 37.541C84.9167 37.5996 84.9395 37.6777 84.9395 37.7754C84.9395 37.8665 84.9069 38.0033 84.8418 38.1855C84.7832 38.3678 84.7018 38.5404 84.5977 38.7031C84.4935 38.8594 84.373 38.9798 84.2363 39.0645C84.0996 39.1426 83.9596 39.1263 83.8164 39.0156C83.7383 38.944 83.6178 38.8138 83.4551 38.625C83.2923 38.4362 83.1296 38.1855 82.9668 37.873C82.8105 37.554 82.6706 37.1732 82.5469 36.7305C82.4232 36.2812 82.3613 35.7637 82.3613 35.1777C82.3613 34.2402 82.5078 33.3939 82.8008 32.6387C83.0938 31.877 83.5039 31.2259 84.0312 30.6855C84.5651 30.1452 85.1999 29.7285 85.9355 29.4355C86.6712 29.1426 87.485 28.9961 88.377 28.9961C89.1061 28.9961 89.7669 29.1165 90.3594 29.3574C90.9583 29.5983 91.4661 29.9368 91.8828 30.373C92.306 30.8027 92.6315 31.3171 92.8594 31.916C93.0872 32.515 93.2012 33.1693 93.2012 33.8789C93.2012 34.7513 93.0449 35.5586 92.7324 36.3008C92.4199 37.0365 92.0033 37.6908 91.4824 38.2637C90.9616 38.8366 90.3594 39.3118 89.6758 39.6895C88.9987 40.0671 88.2923 40.3242 87.5566 40.4609V43.0977C87.5566 43.2669 87.5013 43.3841 87.3906 43.4492C87.2799 43.5208 87.1497 43.5566 87 43.5566C86.8828 43.5566 86.7656 43.5404 86.6484 43.5078C86.5312 43.4753 86.4238 43.4329 86.3262 43.3809C86.235 43.3288 86.1569 43.2669 86.0918 43.1953C86.0332 43.1302 86.0039 43.0586 86.0039 42.9805V32.5215ZM94.2461 30.6758C94.2461 30.5326 94.2331 30.4186 94.207 30.334C94.1875 30.2493 94.1647 30.1842 94.1387 30.1387C94.1191 30.0866 94.0964 30.0475 94.0703 30.0215C94.0508 29.9889 94.041 29.9564 94.041 29.9238C94.041 29.8848 94.0605 29.8522 94.0996 29.8262C94.1387 29.8001 94.1908 29.7773 94.2559 29.7578C94.321 29.7383 94.3893 29.7253 94.4609 29.7188C94.5391 29.7057 94.6139 29.6992 94.6855 29.6992C95.0176 29.6992 95.278 29.7871 95.4668 29.9629C95.6621 30.1322 95.7598 30.3372 95.7598 30.5781V37.1406C95.8965 36.8607 96.043 36.6003 96.1992 36.3594C96.362 36.1185 96.5345 35.9102 96.7168 35.7344C96.9056 35.5521 97.1042 35.4121 97.3125 35.3145C97.5273 35.2103 97.7585 35.1582 98.0059 35.1582C98.3379 35.1582 98.6113 35.2201 98.8262 35.3438C99.041 35.4674 99.2103 35.627 99.334 35.8223C99.4577 36.0176 99.5423 36.2357 99.5879 36.4766C99.64 36.7174 99.666 36.9518 99.666 37.1797V41.3203C99.666 41.3659 99.6693 41.4408 99.6758 41.5449C99.6823 41.6426 99.7018 41.7435 99.7344 41.8477C99.7669 41.9518 99.8158 42.043 99.8809 42.1211C99.9525 42.1992 100.053 42.2383 100.184 42.2383C100.385 42.2383 100.558 42.1667 100.701 42.0234C100.851 41.8802 100.978 41.7012 101.082 41.4863C101.193 41.2715 101.281 41.0404 101.346 40.793C101.417 40.5391 101.476 40.3014 101.521 40.0801C101.561 39.8783 101.619 39.7318 101.697 39.6406C101.782 39.5495 101.87 39.5007 101.961 39.4941C102.059 39.4811 102.156 39.5039 102.254 39.5625C102.352 39.6211 102.436 39.6992 102.508 39.7969C102.579 39.888 102.632 39.9922 102.664 40.1094C102.703 40.2266 102.71 40.3372 102.684 40.4414C102.592 40.7734 102.472 41.1217 102.322 41.4863C102.179 41.8509 101.993 42.1862 101.766 42.4922C101.538 42.7982 101.264 43.0521 100.945 43.2539C100.626 43.4557 100.252 43.5566 99.8223 43.5566C99.5553 43.5566 99.3177 43.5046 99.1094 43.4004C98.9076 43.3027 98.7318 43.1693 98.582 43C98.4388 42.8307 98.3281 42.6322 98.25 42.4043C98.1784 42.1764 98.1426 41.9355 98.1426 41.6816V37.6191C98.1426 37.4629 98.1393 37.3164 98.1328 37.1797C98.1263 37.043 98.1068 36.9225 98.0742 36.8184C98.0482 36.7142 98.0059 36.6328 97.9473 36.5742C97.8952 36.5091 97.8203 36.4766 97.7227 36.4766C97.5794 36.4766 97.4036 36.5742 97.1953 36.7695C96.987 36.9648 96.7819 37.2188 96.5801 37.5312C96.3783 37.8438 96.1992 38.1986 96.043 38.5957C95.8932 38.9863 95.7988 39.3802 95.7598 39.7773V42.6973C95.7598 42.7949 95.7565 42.8958 95.75 43C95.75 43.0977 95.7305 43.1855 95.6914 43.2637C95.6589 43.3483 95.6035 43.4167 95.5254 43.4688C95.4538 43.5273 95.3464 43.5566 95.2031 43.5566C95.1055 43.5566 94.998 43.5436 94.8809 43.5176C94.7702 43.498 94.666 43.4557 94.5684 43.3906C94.4772 43.332 94.3991 43.2441 94.334 43.127C94.2754 43.0163 94.2461 42.8665 94.2461 42.6777V30.6758ZM108.924 39.6992C108.937 39.6211 108.979 39.556 109.051 39.5039C109.129 39.4518 109.217 39.416 109.314 39.3965C109.412 39.377 109.513 39.377 109.617 39.3965C109.728 39.416 109.822 39.4616 109.9 39.5332C109.985 39.5983 110.044 39.6927 110.076 39.8164C110.115 39.9336 110.112 40.0866 110.066 40.2754C110.008 40.5488 109.91 40.806 109.773 41.0469C109.643 41.2812 109.477 41.4896 109.275 41.6719C109.074 41.8542 108.836 41.9974 108.562 42.1016C108.289 42.2057 107.983 42.2578 107.645 42.2578C107.462 42.2578 107.29 42.248 107.127 42.2285C106.971 42.209 106.818 42.1732 106.668 42.1211C106.421 42.5508 106.102 42.8958 105.711 43.1562C105.32 43.4232 104.839 43.5566 104.266 43.5566C103.758 43.5566 103.322 43.4557 102.957 43.2539C102.592 43.0586 102.29 42.7917 102.049 42.4531C101.808 42.1081 101.629 41.7109 101.512 41.2617C101.401 40.8125 101.346 40.3372 101.346 39.8359C101.346 39.1003 101.43 38.4427 101.6 37.8633C101.775 37.2773 101.977 36.7826 102.205 36.3789C102.433 35.9688 102.658 35.6562 102.879 35.4414C103.107 35.2266 103.276 35.1191 103.387 35.1191C103.517 35.1191 103.634 35.1777 103.738 35.2949C103.849 35.4056 103.927 35.5391 103.973 35.6953C104.025 35.8451 104.038 35.998 104.012 36.1543C103.992 36.3105 103.917 36.431 103.787 36.5156C103.709 36.6393 103.615 36.7826 103.504 36.9453C103.4 37.1081 103.299 37.3132 103.201 37.5605C103.11 37.8014 103.032 38.0977 102.967 38.4492C102.902 38.8008 102.869 39.224 102.869 39.7188C102.869 40.1419 102.905 40.5098 102.977 40.8223C103.055 41.1348 103.159 41.3984 103.289 41.6133C103.426 41.8216 103.579 41.9779 103.748 42.082C103.924 42.1862 104.109 42.2383 104.305 42.2383C104.591 42.2383 104.826 42.1699 105.008 42.0332C105.197 41.89 105.356 41.7044 105.486 41.4766C105.018 41.0729 104.66 40.5618 104.412 39.9434C104.171 39.3184 104.051 38.6445 104.051 37.9219C104.051 37.6094 104.083 37.3132 104.148 37.0332C104.22 36.7467 104.321 36.4961 104.451 36.2812C104.588 36.0664 104.757 35.8971 104.959 35.7734C105.161 35.6432 105.395 35.5781 105.662 35.5781C105.896 35.5781 106.118 35.6628 106.326 35.832C106.535 36.0013 106.717 36.2357 106.873 36.5352C107.029 36.8346 107.15 37.1895 107.234 37.5996C107.326 38.0098 107.371 38.4557 107.371 38.9375C107.371 39.3086 107.348 39.6764 107.303 40.041C107.257 40.4056 107.186 40.7572 107.088 41.0957C107.16 41.1217 107.225 41.138 107.283 41.1445C107.348 41.1445 107.417 41.1445 107.488 41.1445C107.703 41.1445 107.892 41.1055 108.055 41.0273C108.224 40.9492 108.367 40.8451 108.484 40.7148C108.602 40.5846 108.696 40.4316 108.768 40.2559C108.839 40.0801 108.891 39.8945 108.924 39.6992ZM105.105 37.8438C105.105 38.293 105.174 38.7194 105.311 39.123C105.454 39.5267 105.639 39.8783 105.867 40.1777C105.906 39.8587 105.926 39.5527 105.926 39.2598C105.926 38.9212 105.919 38.6087 105.906 38.3223C105.9 38.0293 105.877 37.7786 105.838 37.5703C105.805 37.362 105.757 37.1992 105.691 37.082C105.633 36.9583 105.551 36.8965 105.447 36.8965C105.219 36.8965 105.105 37.2122 105.105 37.8438ZM107.127 33.5957C107.277 33.6087 107.443 33.6185 107.625 33.625C107.781 33.638 107.97 33.6478 108.191 33.6543C108.413 33.6543 108.66 33.6576 108.934 33.6641V30.2754C108.934 30.1322 108.921 30.0182 108.895 29.9336C108.875 29.849 108.852 29.7839 108.826 29.7383C108.807 29.6862 108.784 29.6471 108.758 29.6211C108.738 29.5885 108.729 29.556 108.729 29.5234C108.729 29.4844 108.748 29.4518 108.787 29.4258C108.826 29.3997 108.878 29.377 108.943 29.3574C109.008 29.3379 109.077 29.3249 109.148 29.3184C109.227 29.3053 109.301 29.2988 109.373 29.2988C109.705 29.2988 109.965 29.3867 110.154 29.5625C110.35 29.7318 110.447 29.9368 110.447 30.1777V33.6836C111.059 33.6836 111.704 33.6771 112.381 33.6641C113.064 33.651 113.748 33.6283 114.432 33.5957C114.523 33.498 114.594 33.4622 114.646 33.4883C114.705 33.5143 114.741 33.5762 114.754 33.6738C114.773 33.7715 114.777 33.8919 114.764 34.0352C114.751 34.1784 114.725 34.3184 114.686 34.4551C114.646 34.5853 114.591 34.6992 114.52 34.7969C114.454 34.8945 114.38 34.9434 114.295 34.9434C113.494 34.9629 112.785 34.9759 112.166 34.9824C111.554 34.9824 110.981 34.9824 110.447 34.9824V41.3203C110.447 41.6458 110.509 41.8802 110.633 42.0234C110.757 42.1667 110.923 42.2383 111.131 42.2383C111.333 42.2383 111.505 42.1667 111.648 42.0234C111.798 41.8802 111.925 41.7012 112.029 41.4863C112.14 41.2715 112.228 41.0404 112.293 40.793C112.365 40.5391 112.423 40.3014 112.469 40.0801C112.508 39.8717 112.573 39.722 112.664 39.6309C112.755 39.5332 112.85 39.4844 112.947 39.4844C113.025 39.4844 113.107 39.5104 113.191 39.5625C113.276 39.6081 113.351 39.6699 113.416 39.748C113.488 39.8262 113.543 39.9141 113.582 40.0117C113.628 40.1094 113.65 40.207 113.65 40.3047C113.65 40.3177 113.65 40.334 113.65 40.3535C113.65 40.373 113.644 40.4023 113.631 40.4414C113.546 40.7734 113.429 41.1217 113.279 41.4863C113.136 41.8509 112.947 42.1862 112.713 42.4922C112.485 42.7982 112.212 43.0521 111.893 43.2539C111.574 43.4557 111.199 43.5566 110.77 43.5566C110.503 43.5566 110.255 43.5143 110.027 43.4297C109.806 43.3516 109.614 43.2214 109.451 43.0391C109.288 42.8633 109.161 42.6354 109.07 42.3555C108.979 42.0755 108.934 41.737 108.934 41.3398V34.9824C108.712 34.9824 108.514 34.9824 108.338 34.9824C108.169 34.9759 108.025 34.9694 107.908 34.9629C107.771 34.9564 107.651 34.9499 107.547 34.9434C107.391 34.9434 107.254 34.875 107.137 34.7383C107.013 34.5951 106.928 34.4388 106.883 34.2695C106.831 34.1003 106.824 33.9473 106.863 33.8105C106.896 33.6673 106.984 33.5957 107.127 33.5957ZM119.881 39.6992C119.894 39.6211 119.936 39.556 120.008 39.5039C120.086 39.4518 120.174 39.416 120.271 39.3965C120.369 39.377 120.47 39.377 120.574 39.3965C120.685 39.416 120.779 39.4616 120.857 39.5332C120.942 39.5983 121.001 39.6927 121.033 39.8164C121.072 39.9336 121.069 40.0866 121.023 40.2754C120.965 40.5488 120.867 40.806 120.73 41.0469C120.6 41.2812 120.434 41.4896 120.232 41.6719C120.031 41.8542 119.793 41.9974 119.52 42.1016C119.246 42.2057 118.94 42.2578 118.602 42.2578C118.419 42.2578 118.247 42.248 118.084 42.2285C117.928 42.209 117.775 42.1732 117.625 42.1211C117.378 42.5508 117.059 42.8958 116.668 43.1562C116.277 43.4232 115.796 43.5566 115.223 43.5566C114.715 43.5566 114.279 43.4557 113.914 43.2539C113.549 43.0586 113.247 42.7917 113.006 42.4531C112.765 42.1081 112.586 41.7109 112.469 41.2617C112.358 40.8125 112.303 40.3372 112.303 39.8359C112.303 39.1003 112.387 38.4427 112.557 37.8633C112.732 37.2773 112.934 36.7826 113.162 36.3789C113.39 35.9688 113.615 35.6562 113.836 35.4414C114.064 35.2266 114.233 35.1191 114.344 35.1191C114.474 35.1191 114.591 35.1777 114.695 35.2949C114.806 35.4056 114.884 35.5391 114.93 35.6953C114.982 35.8451 114.995 35.998 114.969 36.1543C114.949 36.3105 114.874 36.431 114.744 36.5156C114.666 36.6393 114.572 36.7826 114.461 36.9453C114.357 37.1081 114.256 37.3132 114.158 37.5605C114.067 37.8014 113.989 38.0977 113.924 38.4492C113.859 38.8008 113.826 39.224 113.826 39.7188C113.826 40.1419 113.862 40.5098 113.934 40.8223C114.012 41.1348 114.116 41.3984 114.246 41.6133C114.383 41.8216 114.536 41.9779 114.705 42.082C114.881 42.1862 115.066 42.2383 115.262 42.2383C115.548 42.2383 115.783 42.1699 115.965 42.0332C116.154 41.89 116.313 41.7044 116.443 41.4766C115.975 41.0729 115.617 40.5618 115.369 39.9434C115.128 39.3184 115.008 38.6445 115.008 37.9219C115.008 37.6094 115.04 37.3132 115.105 37.0332C115.177 36.7467 115.278 36.4961 115.408 36.2812C115.545 36.0664 115.714 35.8971 115.916 35.7734C116.118 35.6432 116.352 35.5781 116.619 35.5781C116.854 35.5781 117.075 35.6628 117.283 35.832C117.492 36.0013 117.674 36.2357 117.83 36.5352C117.986 36.8346 118.107 37.1895 118.191 37.5996C118.283 38.0098 118.328 38.4557 118.328 38.9375C118.328 39.3086 118.305 39.6764 118.26 40.041C118.214 40.4056 118.143 40.7572 118.045 41.0957C118.117 41.1217 118.182 41.138 118.24 41.1445C118.305 41.1445 118.374 41.1445 118.445 41.1445C118.66 41.1445 118.849 41.1055 119.012 41.0273C119.181 40.9492 119.324 40.8451 119.441 40.7148C119.559 40.5846 119.653 40.4316 119.725 40.2559C119.796 40.0801 119.848 39.8945 119.881 39.6992ZM116.062 37.8438C116.062 38.293 116.131 38.7194 116.268 39.123C116.411 39.5267 116.596 39.8783 116.824 40.1777C116.863 39.8587 116.883 39.5527 116.883 39.2598C116.883 38.9212 116.876 38.6087 116.863 38.3223C116.857 38.0293 116.834 37.7786 116.795 37.5703C116.762 37.362 116.714 37.1992 116.648 37.082C116.59 36.9583 116.508 36.8965 116.404 36.8965C116.176 36.8965 116.062 37.2122 116.062 37.8438ZM121.092 48.9375C121.092 48.4297 121.157 47.9805 121.287 47.5898C121.424 47.1992 121.606 46.8411 121.834 46.5156C122.062 46.1901 122.326 45.8841 122.625 45.5977C122.924 45.3177 123.24 45.0312 123.572 44.7383V42.6387C123.37 42.8405 123.133 43.0098 122.859 43.1465C122.592 43.2897 122.283 43.3613 121.932 43.3613C121.541 43.3613 121.196 43.2832 120.896 43.127C120.604 42.9707 120.356 42.7591 120.154 42.4922C119.952 42.2188 119.799 41.8997 119.695 41.5352C119.598 41.1641 119.549 40.7669 119.549 40.3438C119.549 39.5104 119.682 38.7617 119.949 38.0977C120.216 37.4336 120.571 36.8704 121.014 36.4082C121.456 35.9395 121.961 35.5814 122.527 35.334C123.1 35.0866 123.693 34.9629 124.305 34.9629C124.578 34.9629 124.799 35.0378 124.969 35.1875C125.138 35.3307 125.223 35.5358 125.223 35.8027C125.223 35.972 125.203 36.0924 125.164 36.1641C125.132 36.2292 125.066 36.2617 124.969 36.2617C124.878 36.2617 124.783 36.2552 124.686 36.2422C124.588 36.2292 124.487 36.2227 124.383 36.2227C124.005 36.2227 123.621 36.3073 123.23 36.4766C122.84 36.6393 122.485 36.8932 122.166 37.2383C121.854 37.5768 121.596 38.0098 121.395 38.5371C121.193 39.0579 121.092 39.6797 121.092 40.4023C121.092 40.9232 121.193 41.3268 121.395 41.6133C121.596 41.8997 121.873 42.043 122.225 42.043C122.426 42.043 122.602 41.9844 122.752 41.8672C122.902 41.7435 123.032 41.5905 123.143 41.4082C123.253 41.2259 123.341 41.0273 123.406 40.8125C123.478 40.5911 123.533 40.3796 123.572 40.1777V37.9219C123.572 37.7331 123.556 37.5964 123.523 37.5117C123.497 37.4271 123.484 37.349 123.484 37.2773C123.484 37.1797 123.536 37.0983 123.641 37.0332C123.745 36.9681 123.868 36.9355 124.012 36.9355C124.344 36.9355 124.604 37.0234 124.793 37.1992C124.988 37.3685 125.086 37.5768 125.086 37.8242V43.2637C125.451 42.86 125.783 42.401 126.082 41.8867C126.388 41.3724 126.642 40.7702 126.844 40.0801C126.909 39.8717 126.98 39.722 127.059 39.6309C127.137 39.5332 127.228 39.4844 127.332 39.4844C127.41 39.4844 127.488 39.5104 127.566 39.5625C127.651 39.6081 127.726 39.6699 127.791 39.748C127.863 39.8262 127.918 39.9141 127.957 40.0117C128.003 40.1094 128.025 40.207 128.025 40.3047C128.025 40.3177 128.025 40.3438 128.025 40.3828C128.025 40.4219 128.019 40.4609 128.006 40.5C127.837 41.0794 127.638 41.5938 127.41 42.043C127.189 42.4857 126.951 42.8828 126.697 43.2344C126.443 43.5859 126.18 43.8984 125.906 44.1719C125.633 44.4518 125.359 44.709 125.086 44.9434V48.4004C125.086 48.9277 125.024 49.3704 124.9 49.7285C124.783 50.0931 124.627 50.3861 124.432 50.6074C124.236 50.8353 124.012 50.998 123.758 51.0957C123.51 51.1934 123.26 51.2422 123.006 51.2422C122.726 51.2422 122.469 51.1803 122.234 51.0566C122 50.9395 121.798 50.7767 121.629 50.5684C121.46 50.36 121.326 50.1159 121.229 49.8359C121.137 49.556 121.092 49.2565 121.092 48.9375ZM123.006 49.9824C123.169 49.9824 123.289 49.9173 123.367 49.7871C123.445 49.6569 123.497 49.5039 123.523 49.3281C123.556 49.1589 123.572 48.9863 123.572 48.8105C123.572 48.6348 123.572 48.498 123.572 48.4004V46.2617C123.247 46.5872 122.983 46.9551 122.781 47.3652C122.586 47.7754 122.488 48.2799 122.488 48.8789C122.488 49.1914 122.534 49.4518 122.625 49.6602C122.716 49.875 122.843 49.9824 123.006 49.9824ZM131.297 43.5566C131.062 43.5566 130.822 43.5208 130.574 43.4492C130.333 43.3776 130.112 43.2539 129.91 43.0781C129.715 42.9023 129.552 42.6712 129.422 42.3848C129.298 42.0918 129.236 41.724 129.236 41.2812C129.236 40.6367 129.321 39.9564 129.49 39.2402C129.666 38.5176 129.917 37.7233 130.242 36.8574H128.719H128.494C128.488 37.0527 128.475 37.3001 128.455 37.5996C128.442 37.8991 128.416 38.2181 128.377 38.5566C128.338 38.8952 128.286 39.237 128.221 39.582C128.162 39.9271 128.087 40.2461 127.996 40.5391C127.931 40.7474 127.827 40.8678 127.684 40.9004C127.547 40.9329 127.41 40.9102 127.273 40.832C127.137 40.7474 127.026 40.627 126.941 40.4707C126.857 40.3145 126.837 40.1517 126.883 39.9824C126.935 39.7806 126.98 39.5365 127.02 39.25C127.059 38.957 127.088 38.651 127.107 38.332C127.133 38.0065 127.153 37.6842 127.166 37.3652C127.179 37.0397 127.189 36.75 127.195 36.4961C126.948 36.3594 126.743 36.1868 126.58 35.9785C126.417 35.7637 126.336 35.5098 126.336 35.2168C126.336 35.0801 126.362 34.9564 126.414 34.8457C126.473 34.7285 126.548 34.6309 126.639 34.5527C126.73 34.4681 126.837 34.4062 126.961 34.3672C127.085 34.3216 127.212 34.2988 127.342 34.2988C127.459 34.2988 127.579 34.3151 127.703 34.3477C127.833 34.3802 127.954 34.4388 128.064 34.5234C128.182 34.6081 128.286 34.7188 128.377 34.8555C128.468 34.9922 128.543 35.1615 128.602 35.3633C128.764 35.3828 128.901 35.3991 129.012 35.4121C129.129 35.4186 129.227 35.4251 129.305 35.4316C129.383 35.4382 129.448 35.4414 129.5 35.4414C129.552 35.4414 129.604 35.4414 129.656 35.4414H130.701C130.76 35.4414 130.844 35.4772 130.955 35.5488C131.072 35.6204 131.186 35.7148 131.297 35.832C131.408 35.9427 131.499 36.0632 131.57 36.1934C131.648 36.3236 131.678 36.4473 131.658 36.5645C131.658 36.6035 131.635 36.6979 131.59 36.8477C131.544 36.9974 131.489 37.1862 131.424 37.4141C131.359 37.6419 131.287 37.9056 131.209 38.2051C131.131 38.498 131.059 38.8073 130.994 39.1328C130.929 39.4583 130.874 39.7969 130.828 40.1484C130.783 40.4935 130.76 40.832 130.76 41.1641C130.76 41.3008 130.776 41.4342 130.809 41.5645C130.841 41.6947 130.89 41.8118 130.955 41.916C131.02 42.0137 131.102 42.0918 131.199 42.1504C131.303 42.209 131.424 42.2383 131.561 42.2383C131.788 42.2383 131.984 42.1667 132.146 42.0234C132.309 41.8802 132.446 41.7012 132.557 41.4863C132.667 41.2715 132.755 41.0404 132.82 40.793C132.892 40.5391 132.951 40.3014 132.996 40.0801C133.035 39.8717 133.1 39.722 133.191 39.6309C133.283 39.5332 133.377 39.4844 133.475 39.4844C133.553 39.4844 133.634 39.5104 133.719 39.5625C133.803 39.6081 133.878 39.6699 133.943 39.748C134.015 39.8262 134.07 39.9141 134.109 40.0117C134.155 40.1094 134.178 40.207 134.178 40.3047C134.178 40.3372 134.174 40.3633 134.168 40.3828C134.161 40.4023 134.158 40.4219 134.158 40.4414C134.067 40.7734 133.947 41.1217 133.797 41.4863C133.654 41.8509 133.468 42.1862 133.24 42.4922C133.012 42.7982 132.739 43.0521 132.42 43.2539C132.101 43.4557 131.727 43.5566 131.297 43.5566ZM138.748 42.2383C138.95 42.2383 139.122 42.1667 139.266 42.0234C139.415 41.8802 139.542 41.7012 139.646 41.4863C139.757 41.2715 139.845 41.0404 139.91 40.793C139.982 40.5391 140.04 40.3014 140.086 40.0801C140.132 39.8717 140.197 39.722 140.281 39.6309C140.372 39.5332 140.47 39.4844 140.574 39.4844C140.652 39.4844 140.73 39.5104 140.809 39.5625C140.893 39.6081 140.968 39.6699 141.033 39.748C141.105 39.8262 141.16 39.9141 141.199 40.0117C141.245 40.1094 141.268 40.207 141.268 40.3047C141.268 40.3177 141.268 40.334 141.268 40.3535C141.268 40.373 141.261 40.4023 141.248 40.4414C141.163 40.7734 141.046 41.1217 140.896 41.4863C140.753 41.8509 140.568 42.1862 140.34 42.4922C140.112 42.7982 139.835 43.0521 139.51 43.2539C139.191 43.4557 138.816 43.5566 138.387 43.5566C138.035 43.5566 137.729 43.4818 137.469 43.332C137.208 43.1823 137.003 42.9837 136.854 42.7363C136.652 42.9642 136.408 43.1562 136.121 43.3125C135.841 43.4753 135.512 43.5566 135.135 43.5566C134.744 43.5566 134.399 43.4785 134.1 43.3223C133.807 43.166 133.559 42.9544 133.357 42.6875C133.156 42.4141 133.003 42.0951 132.898 41.7305C132.801 41.3594 132.752 40.9622 132.752 40.5391C132.752 39.7057 132.885 38.957 133.152 38.293C133.419 37.6289 133.774 37.0658 134.217 36.6035C134.66 36.1348 135.164 35.7767 135.73 35.5293C136.303 35.2819 136.896 35.1582 137.508 35.1582C137.781 35.1582 138.003 35.2331 138.172 35.3828C138.341 35.5326 138.426 35.7376 138.426 35.998C138.426 36.1673 138.406 36.2878 138.367 36.3594C138.335 36.4245 138.27 36.457 138.172 36.457C138.081 36.457 137.986 36.4505 137.889 36.4375C137.791 36.4245 137.69 36.418 137.586 36.418C137.208 36.418 136.824 36.5026 136.434 36.6719C136.043 36.8346 135.688 37.0885 135.369 37.4336C135.057 37.7721 134.799 38.2051 134.598 38.7324C134.396 39.2533 134.295 39.875 134.295 40.5977C134.295 41.125 134.396 41.5319 134.598 41.8184C134.799 42.0983 135.076 42.2383 135.428 42.2383C135.701 42.2383 135.929 42.1374 136.111 41.9355C136.294 41.7272 136.44 41.4831 136.551 41.2031V38.1172C136.551 38.0195 136.544 37.9382 136.531 37.873C136.525 37.8079 136.515 37.7526 136.502 37.707C136.495 37.6615 136.489 37.6224 136.482 37.5898C136.476 37.5508 136.473 37.515 136.473 37.4824C136.473 37.3783 136.521 37.2969 136.619 37.2383C136.723 37.1732 136.847 37.1406 136.99 37.1406C137.322 37.1406 137.586 37.2285 137.781 37.4043C137.977 37.5736 138.074 37.7786 138.074 38.0195V41.3203C138.074 41.431 138.087 41.5417 138.113 41.6523C138.139 41.7565 138.178 41.8542 138.23 41.9453C138.283 42.0299 138.351 42.1016 138.436 42.1602C138.527 42.2122 138.631 42.2383 138.748 42.2383ZM142.664 43.7617C142.417 43.7617 142.215 43.7324 142.059 43.6738C141.902 43.6217 141.782 43.5501 141.697 43.459V49.9629C141.697 50.1452 141.661 50.2917 141.59 50.4023C141.518 50.5195 141.427 50.6107 141.316 50.6758C141.212 50.7409 141.098 50.7832 140.975 50.8027C140.851 50.8288 140.74 50.8418 140.643 50.8418C140.441 50.8418 140.314 50.7897 140.262 50.6855C140.21 50.5814 140.184 50.4544 140.184 50.3047V36.3398C140.184 36.1966 140.171 36.0827 140.145 35.998C140.125 35.9134 140.102 35.8483 140.076 35.8027C140.057 35.7507 140.034 35.7116 140.008 35.6855C139.988 35.653 139.979 35.6172 139.979 35.5781C139.979 35.5456 139.998 35.5163 140.037 35.4902C140.076 35.4642 140.128 35.4414 140.193 35.4219C140.258 35.4023 140.327 35.3893 140.398 35.3828C140.477 35.3698 140.551 35.3633 140.623 35.3633C140.942 35.3633 141.196 35.4512 141.385 35.627C141.58 35.7962 141.684 35.9948 141.697 36.2227C141.906 35.9167 142.156 35.6628 142.449 35.4609C142.742 35.2591 143.1 35.1582 143.523 35.1582C143.914 35.1582 144.253 35.2493 144.539 35.4316C144.832 35.6139 145.073 35.8646 145.262 36.1836C145.457 36.4961 145.6 36.8672 145.691 37.2969C145.789 37.7266 145.838 38.1888 145.838 38.6836C145.838 39.2435 145.789 39.7806 145.691 40.2949C145.594 40.8027 145.47 41.2389 145.32 41.6035C145.652 41.584 145.926 41.5384 146.141 41.4668C146.355 41.3952 146.535 41.2975 146.678 41.1738C146.827 41.0436 146.954 40.8874 147.059 40.7051C147.169 40.5228 147.283 40.3145 147.4 40.0801C147.492 39.8913 147.566 39.7546 147.625 39.6699C147.69 39.5853 147.768 39.543 147.859 39.543C147.944 39.543 148.029 39.569 148.113 39.6211C148.204 39.6732 148.283 39.7383 148.348 39.8164C148.419 39.8945 148.475 39.9792 148.514 40.0703C148.559 40.1549 148.582 40.2331 148.582 40.3047C148.582 40.5326 148.504 40.793 148.348 41.0859C148.191 41.3789 147.951 41.6556 147.625 41.916C147.306 42.1764 146.899 42.3978 146.404 42.5801C145.916 42.7559 145.34 42.8438 144.676 42.8438C144.402 43.1367 144.087 43.3613 143.729 43.5176C143.37 43.6803 143.016 43.7617 142.664 43.7617ZM143.016 36.4961C142.872 36.4961 142.732 36.5384 142.596 36.623C142.465 36.7077 142.342 36.8249 142.225 36.9746C142.107 37.1178 142.003 37.2936 141.912 37.502C141.827 37.7103 141.756 37.9349 141.697 38.1758V42.502C141.84 42.2936 142.075 42.1341 142.4 42.0234C142.726 41.9128 143.12 41.8379 143.582 41.7988C143.699 41.623 143.8 41.4147 143.885 41.1738C143.976 40.9264 144.051 40.6725 144.109 40.4121C144.168 40.1517 144.21 39.8978 144.236 39.6504C144.269 39.403 144.285 39.1849 144.285 38.9961C144.285 38.5404 144.249 38.153 144.178 37.834C144.113 37.515 144.021 37.2578 143.904 37.0625C143.787 36.8607 143.65 36.7174 143.494 36.6328C143.344 36.5417 143.185 36.4961 143.016 36.4961ZM147.41 30.6758C147.41 30.5326 147.397 30.4186 147.371 30.334C147.352 30.2493 147.329 30.1842 147.303 30.1387C147.283 30.0866 147.26 30.0475 147.234 30.0215C147.215 29.9889 147.205 29.9564 147.205 29.9238C147.205 29.8848 147.225 29.8522 147.264 29.8262C147.303 29.8001 147.355 29.7773 147.42 29.7578C147.485 29.7383 147.553 29.7253 147.625 29.7188C147.703 29.7057 147.778 29.6992 147.85 29.6992C148.182 29.6992 148.442 29.7871 148.631 29.9629C148.826 30.1322 148.924 30.3372 148.924 30.5781V37.1406C149.061 36.8607 149.207 36.6003 149.363 36.3594C149.526 36.1185 149.699 35.9102 149.881 35.7344C150.07 35.5521 150.268 35.4121 150.477 35.3145C150.691 35.2103 150.923 35.1582 151.17 35.1582C151.502 35.1582 151.775 35.2201 151.99 35.3438C152.205 35.4674 152.374 35.627 152.498 35.8223C152.622 36.0176 152.706 36.2357 152.752 36.4766C152.804 36.7174 152.83 36.9518 152.83 37.1797V41.3203C152.83 41.3659 152.833 41.4408 152.84 41.5449C152.846 41.6426 152.866 41.7435 152.898 41.8477C152.931 41.9518 152.98 42.043 153.045 42.1211C153.117 42.1992 153.217 42.2383 153.348 42.2383C153.549 42.2383 153.722 42.1667 153.865 42.0234C154.015 41.8802 154.142 41.7012 154.246 41.4863C154.357 41.2715 154.445 41.0404 154.51 40.793C154.581 40.5391 154.64 40.3014 154.686 40.0801C154.725 39.8783 154.783 39.7318 154.861 39.6406C154.946 39.5495 155.034 39.5007 155.125 39.4941C155.223 39.4811 155.32 39.5039 155.418 39.5625C155.516 39.6211 155.6 39.6992 155.672 39.7969C155.743 39.888 155.796 39.9922 155.828 40.1094C155.867 40.2266 155.874 40.3372 155.848 40.4414C155.757 40.7734 155.636 41.1217 155.486 41.4863C155.343 41.8509 155.158 42.1862 154.93 42.4922C154.702 42.7982 154.428 43.0521 154.109 43.2539C153.79 43.4557 153.416 43.5566 152.986 43.5566C152.719 43.5566 152.482 43.5046 152.273 43.4004C152.072 43.3027 151.896 43.1693 151.746 43C151.603 42.8307 151.492 42.6322 151.414 42.4043C151.342 42.1764 151.307 41.9355 151.307 41.6816V37.6191C151.307 37.4629 151.303 37.3164 151.297 37.1797C151.29 37.043 151.271 36.9225 151.238 36.8184C151.212 36.7142 151.17 36.6328 151.111 36.5742C151.059 36.5091 150.984 36.4766 150.887 36.4766C150.743 36.4766 150.568 36.5742 150.359 36.7695C150.151 36.9648 149.946 37.2188 149.744 37.5312C149.542 37.8438 149.363 38.1986 149.207 38.5957C149.057 38.9863 148.963 39.3802 148.924 39.7773V42.6973C148.924 42.7949 148.921 42.8958 148.914 43C148.914 43.0977 148.895 43.1855 148.855 43.2637C148.823 43.3483 148.768 43.4167 148.689 43.4688C148.618 43.5273 148.51 43.5566 148.367 43.5566C148.27 43.5566 148.162 43.5436 148.045 43.5176C147.934 43.498 147.83 43.4557 147.732 43.3906C147.641 43.332 147.563 43.2441 147.498 43.127C147.439 43.0163 147.41 42.8665 147.41 42.6777V30.6758ZM161.873 40.0801C161.932 39.8717 162 39.722 162.078 39.6309C162.156 39.5332 162.247 39.4844 162.352 39.4844C162.43 39.4844 162.511 39.5104 162.596 39.5625C162.68 39.6081 162.755 39.6699 162.82 39.748C162.892 39.8262 162.947 39.9141 162.986 40.0117C163.032 40.1094 163.055 40.207 163.055 40.3047C163.055 40.3177 163.055 40.3438 163.055 40.3828C163.055 40.4219 163.048 40.4609 163.035 40.5C162.866 41.0794 162.667 41.5938 162.439 42.043C162.218 42.4857 161.977 42.8828 161.717 43.2344C161.463 43.5859 161.199 43.8984 160.926 44.1719C160.652 44.4518 160.379 44.709 160.105 44.9434V48.4004C160.105 48.9277 160.044 49.3704 159.92 49.7285C159.803 50.0931 159.646 50.3861 159.451 50.6074C159.256 50.8353 159.035 50.998 158.787 51.0957C158.54 51.1934 158.289 51.2422 158.035 51.2422C157.755 51.2422 157.498 51.1803 157.264 51.0566C157.029 50.9395 156.824 50.7767 156.648 50.5684C156.479 50.36 156.346 50.1159 156.248 49.8359C156.157 49.556 156.111 49.2565 156.111 48.9375C156.111 48.4297 156.176 47.9805 156.307 47.5898C156.443 47.1992 156.626 46.8411 156.854 46.5156C157.081 46.1901 157.345 45.8841 157.645 45.5977C157.944 45.3177 158.26 45.0312 158.592 44.7383V42.1992C158.351 42.6029 158.071 42.9316 157.752 43.1855C157.433 43.446 157.059 43.5762 156.629 43.5762C156.297 43.5762 155.997 43.5078 155.73 43.3711C155.47 43.2344 155.249 43.0423 155.066 42.7949C154.884 42.541 154.744 42.2383 154.646 41.8867C154.555 41.5286 154.51 41.1315 154.51 40.6953C154.51 40.168 154.546 39.6374 154.617 39.1035C154.695 38.5697 154.78 38.0879 154.871 37.6582C154.975 37.1569 155.096 36.6719 155.232 36.2031C155.265 36.1185 155.288 36.0339 155.301 35.9492C155.32 35.8581 155.359 35.7767 155.418 35.7051C155.477 35.6335 155.568 35.5749 155.691 35.5293C155.822 35.4837 156.02 35.4609 156.287 35.4609C156.535 35.4609 156.694 35.5065 156.766 35.5977C156.837 35.6823 156.863 35.7832 156.844 35.9004C156.831 36.0176 156.792 36.138 156.727 36.2617C156.668 36.3854 156.629 36.4863 156.609 36.5645C156.518 36.9355 156.437 37.2741 156.365 37.5801C156.294 37.8861 156.232 38.1953 156.18 38.5078C156.134 38.8138 156.098 39.1361 156.072 39.4746C156.046 39.8066 156.033 40.181 156.033 40.5977C156.033 41.1445 156.111 41.5579 156.268 41.8379C156.43 42.1178 156.658 42.2578 156.951 42.2578C157.153 42.2578 157.339 42.1829 157.508 42.0332C157.684 41.8835 157.84 41.6849 157.977 41.4375C158.12 41.1836 158.243 40.8971 158.348 40.5781C158.452 40.2526 158.533 39.9141 158.592 39.5625V36.3398C158.592 36.151 158.579 36.0143 158.553 35.9297C158.527 35.8451 158.514 35.7669 158.514 35.6953C158.514 35.5977 158.562 35.5195 158.66 35.4609C158.764 35.3958 158.888 35.3633 159.031 35.3633C159.363 35.3633 159.624 35.4512 159.812 35.627C160.008 35.7962 160.105 36.0013 160.105 36.2422V43.2637C160.47 42.86 160.805 42.401 161.111 41.8867C161.417 41.3724 161.671 40.7702 161.873 40.0801ZM158.035 49.9824C158.191 49.9824 158.309 49.9173 158.387 49.7871C158.465 49.6569 158.517 49.5039 158.543 49.3281C158.576 49.1589 158.592 48.9863 158.592 48.8105C158.592 48.6348 158.592 48.498 158.592 48.4004V46.2617C158.266 46.5872 158.003 46.9551 157.801 47.3652C157.605 47.7754 157.508 48.2799 157.508 48.8789C157.508 49.1914 157.553 49.4518 157.645 49.6602C157.742 49.875 157.872 49.9824 158.035 49.9824Z" fill="white"/>
<path d="M72 24L162 25" stroke="#FFFDFD"/>
</svg>
